<svg width="994" height="201" viewBox="0 0 994 201" fill="none" xmlns="http://www.w3.org/2000/svg">
<path d="M0 154.007V1.35974H14.4752V67.3754H103.739V1.35974H117.995V154.007H103.739V79.6574H14.4752V154.007H0Z" fill="#072723"/>
<path d="M155.789 200.285L175.528 151.157L132.76 48.515H147.674L175.747 118.04C177.355 122.28 179.622 127.909 182.546 134.928C182.985 133.904 183.423 132.771 183.862 131.528C184.301 130.285 184.739 129.152 185.178 128.129C186.055 126.228 186.823 124.437 187.481 122.755C188.139 121.074 188.76 119.429 189.345 117.82L215.664 48.515H229.919L170.045 200.285H155.789Z" fill="#072723"/>
<path d="M244.394 200.285V48.5146H257.992V67.8148C261.501 61.2352 266.582 55.8618 273.235 51.6947C279.888 47.5276 287.308 45.4441 295.496 45.4441C305.292 45.4441 313.809 47.8201 321.047 52.572C328.285 57.324 333.841 63.9036 337.715 72.3109C341.59 80.7182 343.527 90.2587 343.527 100.932C343.527 111.606 341.517 121.402 337.496 129.883C333.475 138.363 327.809 145.016 320.499 149.841C313.188 154.666 304.854 157.079 295.496 157.079C287.6 157.079 280.326 155.178 273.674 151.376C267.021 147.575 261.794 142.018 257.992 134.708V200.285H244.394ZM293.522 146.112C300.687 146.112 307.01 144.212 312.493 140.41C317.976 136.609 322.18 131.308 325.104 124.509C328.029 117.71 329.491 109.851 329.491 100.932C329.491 92.0133 327.992 84.6295 324.995 77.9036C321.997 71.1778 317.794 65.9506 312.384 62.2222C306.974 58.4937 300.687 56.6295 293.522 56.6295C286.358 56.6295 280.253 58.4571 274.77 62.1125C269.287 65.7679 265.01 70.9585 261.94 77.6843C258.869 84.4101 257.334 92.1595 257.334 100.932C257.334 109.705 258.869 117.71 261.94 124.509C265.01 131.308 269.251 136.609 274.66 140.41C280.07 144.212 286.358 146.112 293.522 146.112Z" fill="#072723"/>
<path d="M408.448 157.079C398.505 157.079 389.769 154.885 382.239 150.499C374.709 146.112 368.86 139.679 364.693 131.199C360.526 122.718 358.442 112.556 358.442 100.713C358.442 90.1856 360.599 80.7182 364.912 72.3109C369.226 63.9036 375.111 57.324 382.568 52.572C390.025 47.8201 398.359 45.4441 407.57 45.4441C417.513 45.4441 425.993 47.7104 433.011 52.243C440.03 56.7757 445.367 63.1725 449.022 71.4336C452.677 79.6947 454.505 89.3083 454.505 100.274V103.126H372.04C372.04 112.191 373.575 119.94 376.646 126.374C379.716 132.807 384.03 137.705 389.586 141.068C395.142 144.431 401.502 146.112 408.667 146.112C417.147 146.112 424.202 144.102 429.831 140.081C435.461 136.06 438.933 130.029 440.249 121.987H453.847C452.823 128.713 450.447 134.708 446.719 139.971C442.991 145.235 437.873 149.402 431.367 152.473C424.86 155.543 417.22 157.079 408.448 157.079ZM440.03 92.8175C439.884 81.8514 436.959 73.0786 431.257 66.4989C425.555 59.9193 417.659 56.6295 407.57 56.6295C397.481 56.6295 389.696 60.0289 383.335 66.8279C376.975 73.6269 373.356 82.29 372.479 92.8175H440.03Z" fill="#072723"/>
<path d="M475.526 154.008V48.5146H489.124V69.5694C492.048 62.5511 496.617 56.7757 502.831 52.243C509.045 47.7104 516.319 45.4441 524.654 45.4441C526.701 45.4441 528.675 45.5903 530.575 45.8827V59.042C528.09 58.7496 525.896 58.6034 523.996 58.6034C516.977 58.6034 510.836 60.1752 505.573 63.3188C500.309 66.4624 496.252 70.9585 493.4 76.807C490.549 82.6556 489.124 89.4545 489.124 97.2039V154.008H475.526Z" fill="#072723"/>
<path d="M559.667 151.083L559.046 154.044H516.022L516.644 151.083C528.524 149.803 533.385 146.404 535.286 137.521L559.448 23.6571C562.007 11.9965 558.388 10.0957 546.106 12.6179L546.727 9.6571L573.009 0.738037H575.97L546.91 137.485C545.009 146.404 548.189 149.767 559.631 151.046L559.667 151.083Z" fill="#072723"/>
<path d="M608.138 151.082L607.517 154.042H564.493L565.115 151.082C576.995 149.802 581.856 146.403 583.757 137.52L598.379 68.1781C600.937 56.2982 597.538 54.6168 585.037 57.139L585.658 54.1781L611.94 45.2591H614.901L595.381 137.484C593.48 146.403 596.661 149.766 608.102 151.045L608.138 151.082ZM615.339 6.91443C621.078 6.91443 624.88 11.374 624.258 17.0763C623.418 22.8152 618.337 27.0554 612.817 27.0554C606.896 27.0554 602.838 22.8152 603.715 17.0763C604.337 11.3374 609.454 6.91443 615.376 6.91443H615.339Z" fill="#072723"/>
<path d="M682.235 184.602L694.042 130.064C686.622 146.184 671.16 157.187 654.82 157.187C628.538 157.187 616.22 132.367 624.079 95.2653C629.598 68.3253 653.76 45.2235 682.382 45.2235C695.541 45.2235 706.324 51.1452 710.784 59.8449L720.763 45.2235H723.724L693.896 184.529C691.776 194.069 699.416 195.97 707.055 197.25L706.434 200.21H657.05L657.671 197.25C671.891 195.97 680.152 194.069 682.272 184.529L682.235 184.602ZM661.839 149.365C675.4 149.365 688.961 137.704 695.322 123.704L704.241 81.9233C706.58 66.8632 699.379 51.1817 678.799 51.1817C658.22 51.1817 642.136 68.9833 636.836 95.046C630.037 127.067 639.577 149.328 661.839 149.328V149.365Z" fill="#072723"/>
<path d="M870.813 151.082L870.192 154.042H827.168L827.79 151.082C839.67 149.802 844.531 146.403 846.432 137.52L861.054 68.1781C863.612 56.2982 860.213 54.6168 847.712 57.139L848.333 54.1781L874.615 45.2591H877.576L858.056 137.484C856.155 146.403 859.336 149.766 870.777 151.045L870.813 151.082ZM878.014 6.91443C883.753 6.91443 887.555 11.374 886.933 17.0763C886.093 22.8152 881.012 27.0554 875.492 27.0554C869.571 27.0554 865.513 22.8152 866.39 17.0763C867.012 11.3374 872.129 6.91443 878.051 6.91443H878.014Z" fill="#072723"/>
<path d="M809.694 137.265L819.454 90.6954L829.067 45.2959H826.107L799.825 54.215L799.203 57.1758C811.485 54.617 815.104 56.3351 812.545 68.215L800.044 127.359C786.263 140.299 776.504 147.938 764.624 147.938C750.002 147.938 742.362 137.959 745.981 120.815L762.101 45.3325H759.141L732.639 54.2515L732.018 57.2123C744.519 54.6536 747.919 56.3716 745.579 68.2515L734.138 122.534C729.678 142.674 739.877 157.296 758.738 157.296C771.24 157.296 782.242 150.314 799.167 132.147L798.362 135.985V136.168H798.326L794.524 154.152H821.83L822.451 150.936C811.01 149.656 807.83 146.257 809.731 137.374L809.694 137.265Z" fill="#072723"/>
<path d="M985.446 41.3125L994 0.738037H991.039L964.757 9.6571L964.136 12.6179C976.418 10.0592 980.036 11.9965 977.478 23.6571L970.057 58.2002C965.378 50.3412 955.217 45.2602 943.337 45.2602C914.496 45.2602 890.553 68.1427 884.412 97.2028C876.992 132.404 889.091 157.187 915.593 157.187C932.115 157.187 947.833 145.965 955.034 129.845L953.133 139.093L949.953 154.007L977.258 153.788L977.88 150.827C966.439 149.547 963.258 146.148 965.159 137.265L985.41 41.3125H985.446ZM956.277 123.485C949.916 137.704 936.355 149.365 922.574 149.365C900.313 149.365 890.773 127.104 897.133 96.9835C903.055 68.9835 920.016 51.1819 939.755 51.1819C960.809 51.1819 967.828 67.8869 965.049 83.0931L964.063 87.6989L956.313 123.485H956.277Z" fill="#072723"/>
</svg>